<svg width="51" height="18" viewBox="0 0 51 18" fill="none" xmlns="http://www.w3.org/2000/svg">
<path d="M3.95454 17.6934H-6.89924e-06L6.02556 0.238813H10.7812L16.7983 17.6934H12.8437L8.47158 4.22745H8.33522L3.95454 17.6934ZM3.70738 10.8326H13.0483V13.7132H3.70738V10.8326ZM18.8991 17.6934V0.238813H25.8878C27.1719 0.238813 28.2429 0.429154 29.1008 0.809836C29.9588 1.19052 30.6037 1.71893 31.0355 2.39506C31.4673 3.06552 31.6832 3.83825 31.6832 4.71325C31.6832 5.39506 31.5469 5.9945 31.2741 6.51154C31.0014 7.0229 30.6264 7.44336 30.1491 7.7729C29.6776 8.09677 29.1378 8.32688 28.5298 8.46325V8.6337C29.1946 8.66211 29.8168 8.84961 30.3963 9.1962C30.9815 9.54279 31.456 10.0286 31.8196 10.6536C32.1832 11.2729 32.3651 12.0115 32.3651 12.8695C32.3651 13.7956 32.1349 14.6223 31.6747 15.3496C31.2202 16.0712 30.5469 16.6422 29.6548 17.0627C28.7628 17.4831 27.6633 17.6934 26.3565 17.6934H18.8991ZM22.5895 14.6763H25.598C26.6264 14.6763 27.3764 14.4803 27.848 14.0882C28.3196 13.6905 28.5554 13.1621 28.5554 12.503C28.5554 12.0201 28.4389 11.5939 28.206 11.2246C27.973 10.8553 27.6406 10.5655 27.2088 10.3553C26.7827 10.1451 26.2741 10.0399 25.6832 10.0399H22.5895V14.6763ZM22.5895 7.54279H25.3253C25.831 7.54279 26.2798 7.45472 26.6719 7.27859C27.0696 7.09677 27.3821 6.84109 27.6094 6.51154C27.8423 6.182 27.9588 5.78711 27.9588 5.32688C27.9588 4.6962 27.7344 4.18768 27.2855 3.80131C26.8423 3.41495 26.2116 3.22177 25.3935 3.22177H22.5895V7.54279ZM50.1669 6.34961H46.4339C46.3658 5.86665 46.2266 5.43768 46.0163 5.06268C45.8061 4.68199 45.5362 4.35813 45.2067 4.09109C44.8771 3.82404 44.4964 3.61949 44.0646 3.47745C43.6385 3.3354 43.1754 3.26438 42.6754 3.26438C41.772 3.26438 40.9851 3.48881 40.3146 3.93768C39.6442 4.38086 39.1243 5.02859 38.755 5.88086C38.3856 6.72745 38.201 7.75586 38.201 8.96609C38.201 10.2104 38.3856 11.2559 38.755 12.1025C39.13 12.949 39.6527 13.5882 40.3231 14.0201C40.9936 14.4519 41.7692 14.6678 42.6499 14.6678C43.1442 14.6678 43.6016 14.6025 44.022 14.4718C44.4481 14.3411 44.826 14.1507 45.1555 13.9007C45.4851 13.6451 45.7578 13.3354 45.9737 12.9718C46.1953 12.6081 46.3487 12.1934 46.4339 11.7275L50.1669 11.7445C50.0703 12.5456 49.8288 13.3184 49.4425 14.0627C49.0618 14.8013 48.5476 15.4632 47.8999 16.0485C47.2578 16.628 46.4908 17.0882 45.5987 17.4292C44.7124 17.7644 43.7095 17.932 42.5902 17.932C41.0334 17.932 39.6413 17.5797 38.4141 16.8752C37.1925 16.1706 36.2266 15.1507 35.5163 13.8155C34.8118 12.4803 34.4595 10.8638 34.4595 8.96609C34.4595 7.06268 34.8175 5.44336 35.5334 4.10813C36.2493 2.7729 37.2209 1.75586 38.4481 1.057C39.6754 0.35245 41.0561 0.000176907 42.5902 0.000176907C43.6016 0.000176907 44.5391 0.142222 45.4027 0.426313C46.272 0.710404 47.0419 1.12518 47.7124 1.67063C48.3828 2.2104 48.9283 2.87234 49.3487 3.65643C49.7749 4.44052 50.0476 5.33825 50.1669 6.34961Z" fill="white"/>
</svg>
